<svg xmlns:dc="http://purl.org/dc/elements/1.1/" xmlns:cc="http://creativecommons.org/ns#" xmlns:rdf="http://www.w3.org/1999/02/22-rdf-syntax-ns#" xmlns:svg="http://www.w3.org/2000/svg" xmlns="http://www.w3.org/2000/svg" xmlns:xlink="http://www.w3.org/1999/xlink" id="svg181854" viewBox="0 0 1024 768" height="768px" width="1024px" version="1.1">
  <metadata id="metadata181860">
    <rdf:rdf>
      <cc:work rdf:about="">
        <dc:format>image/svg+xml</dc:format>
        <dc:type rdf:resource="http://purl.org/dc/dcmitype/StillImage"></dc:type>
      </cc:work>
    </rdf:rdf>
  </metadata>
  <defs id="defs181858"></defs>
  <linearGradient spreadMethod="pad" y2="30%" x2="-10%" y1="120%" x1="30%" id="3d_gradient2-logo-fb8b6337-0947-41d1-84d0-6e0e2ef4b1be">
    <stop id="stop181835" stop-opacity="1" stop-color="#ffffff" offset="0%"></stop>
    <stop id="stop181837" stop-opacity="1" stop-color="#000000" offset="100%"></stop>
  </linearGradient>
  <linearGradient gradientTransform="rotate(-30)" spreadMethod="pad" y2="30%" x2="-10%" y1="120%" x1="30%" id="3d_gradient3-logo-fb8b6337-0947-41d1-84d0-6e0e2ef4b1be">
    <stop id="stop181840" stop-opacity="1" stop-color="#ffffff" offset="0%"></stop>
    <stop id="stop181842" stop-opacity="1" stop-color="#cccccc" offset="50%"></stop>
    <stop id="stop181844" stop-opacity="1" stop-color="#000000" offset="100%"></stop>
  </linearGradient>
  <g id="logo-group">
    <image xlink:href="" id="container" x="272" y="144" width="480" height="480" style="display: none;" transform="translate(0 0)"></image>
    <g id="logo-center" transform="translate(5.684341886080802e-14 0)">
      <image xlink:href="" id="icon_container" x="0" y="0" style="display: none;"></image>
      <g id="slogan" style="font-style:normal;font-weight:400;font-size:32px;line-height:1;font-family:Arvo;font-variant-ligatures:none;text-align:center;text-anchor:middle" transform="translate(0 0)"></g>
      <g id="title" style="font-style:normal;font-weight:normal;font-size:72px;line-height:1;font-family:'Brandmark Script 2 Color Shadow';font-variant-ligatures:normal;text-align:center;text-anchor:middle" transform="translate(0 0)">
        <g id="path181863" aria-label="~k" transform="translate(0 386.5888) translate(275.82595279999987 -102.9856) scale(4.2) translate(-459.75081 47.808)"> <path class="c1" d="M111.39426,124.84145c0.33086-1.33862,0.68661-2.66296,1.10278-3.95942 c0.44025-1.3715,0.94615-2.71246,1.48786-4.03123c0.77662-1.89062,1.73026-3.92461,2.96517-6.05495 c0.96406-1.6631,2.23556-3.58611,3.21632-4.99362c0.85939-1.23331,1.29477-1.83198,2.38836-2.92504 c1.02136-1.02087,2.58911-2.54731,3.90339-3.26608c0.08161-0.04463,0.20927-0.10596,0.34844-0.15938 c0.1321-0.0507,0.28082-0.08385,0.35645-0.10039c1.31782-0.68907,0.7654-2.9756-0.15818-3.40583 c-0.50667-0.23602-1.07862-0.258-1.73888-0.09479c-0.74885,0.18512-1.61708,0.55145-2.59553,1.23418 c-0.47831,0.38106-1.50713,1.17271-2.49394,2.33961c-0.77189,0.91276-1.45499,1.98701-2.11565,2.95447 c-0.09847,0.1442-0.23676,0.35686-0.3326,0.50208c-2.76959,4.19692-4.44597,8.73274-5.50449,12.86276 C111.26791,119.47326,110.64517,123.86951,111.39426,124.84145z" transform="translate(401.004413 -125.19887)" stroke-width="0" stroke-linejoin="miter" stroke-miterlimit="2" fill="#39cfa5" stroke="#39cfa5"></path> <path class="c2" d="M112.77609,113.90743c3.10028-0.03143,5.80556-0.40662,8.19241-1.01757 c2.89821-0.74184,5.57378-1.92249,7.98968-3.72749c2.84308-2.12415,5.3316-5.55583,5.3316-9.0899 c0-3.21514-2.81609-5.11011-5.53825-5.11011c-1.97707,0-3.51488,0.15374-6.08108,2.12254 c1.58669-1.03577,3.2933-1.1782,3.88906-0.48293c0.59109,0.6898,0.74212,1.6706,0.60352,2.74936 c-0.21544,1.67682-1.10821,3.55936-1.96246,4.71474c-2.97504,4.0238-7.20288,7.25497-12.20938,7.70429 C112.5617,112.0078,112.13259,113.75317,112.77609,113.90743z" transform="translate(401.004413 -125.19887)" stroke-width="0" stroke-linejoin="miter" stroke-miterlimit="2" fill="#39cfa5" stroke="#39cfa5"></path> <path class="c1" d="M138.17845,107.34543c-2.72444,4.87843-8.18362,12.86671-12.16894,13.3208 c-0.33535,0.27657-0.36517,2.23293,1.34129,2.99576c1.40494,0.62804,3.21577-0.06015,4.53696-0.81307 c2.69858-2.03915,6.90665-6.37633,9.31511-10.96735C141.631,110.41637,139.23856,107.71371,138.17845,107.34543z" transform="translate(401.004413 -125.19887)" stroke-width="0" stroke-linejoin="miter" stroke-miterlimit="2" fill="#39cfa5" stroke="#39cfa5"></path> <path class="c2" d="M124.63604,118.48975c-1.01143-2.12075-1.7569-4.25452-3.66754-5.59989 c-2.15066-1.51437-7.08147-1.13878-9.19746,1.64093c0.77586,0.5819,1.47599,1.39563,2.21387,2.32001 c0.43816,0.5489,0.9166,1.14383,1.3754,1.75538c1.21896,1.62482,2.46651,3.4251,4.77358,4.96574 c1.57778,1.05363,3.35904,1.63001,5.45061,1.63001c2.50452,0,4.89871-1.13429,6.30327-2.35302 c-2.22591,0.78831-4.28087-0.00224-5.87824-2.18269C125.36645,119.88367,124.88445,119.01062,124.63604,118.48975z" transform="translate(401.004413 -125.19887)" stroke-width="0" stroke-linejoin="miter" stroke-miterlimit="2" fill="#39cfa5" stroke="#39cfa5"></path> <path class="c2" d="M133.49779,81.56711c0-2.10034-1.91333-4.17623-4.59009-4.17623 c-3.73446,0-6.98928,2.26489-10.26687,6.27106c-1.0391,1.26995-2.00922,2.6138-2.8569,4.02578 c-0.86529,1.44131-1.60587,2.95207-2.30371,4.46436c-2.13543,4.62766-3.60671,9.38593-4.89069,13.15364 c-2.38911,7.01059-4.32492,13.16235-4.32492,15.29726c0,2.98779,2.06917,4.59988,5.18904,4.59988 c0.87402,0,1.6357-0.14792,1.94063-0.36142c-0.52955-2.00705,3.29432-13.39106,6.33398-21.96036 c1.49903-4.22601,2.78834-7.77899,3.30724-9.16247c0.14793-0.3944,0.28996-0.69405,0.29334-0.70277 c0.07399-0.24068,0.19125-0.55891,0.28748-0.86142c0.58229-1.39216,1.50636-3.32717,2.52662-5.1889 c1.08128-1.97311,3.26231-5.52283,5.32264-6.40671c0.37415,0.00116,2.57982,1.82087,2.923,5.25211 C133.22791,84.34264,133.49779,82.79837,133.49779,81.56711z" transform="translate(401.004413 -125.19887)" stroke-width="0" stroke-linejoin="miter" stroke-miterlimit="2" fill="#39cfa5" stroke="#39cfa5"></path> <path class="c2" d="M62.8601,97.91239c-1.65279-0.26387-3.981-3.16956-4.10449-5.97663 c-0.22146-5.03419,3.55597-9.31796,10.62436-10.5789c8.15477-1.45474,19.21401,0.71548,27.68232,2.58624 c-7.07752-1.34886-16.43678-1.48299-20.90318-0.57537c-4.79906,0.97521-8.73289,3.19975-11.20475,6.74792 C63.12175,92.74622,62.54287,95.45398,62.8601,97.91239z" transform="translate(401.004413 -125.19887)" stroke-width="0" stroke-linejoin="miter" stroke-miterlimit="2" fill="#39cfa5" stroke="#39cfa5"></path> <path class="c1" d="M132.0849,80.99873c-0.78687-0.65106-1.91768-0.70488-2.61934-0.43993 c0.27928,1.44102-0.92506,4.82965-5.32261,6.40671c-1.069,0.38336-2.29665,0.62638-3.77747,0.74818 c-1.38993,0.11433-2.982,0.09218-4.58155-0.02599c-7.66573-0.56628-16.77191-3.32891-18.72168-3.74463 c-5.86035-1.26166-15.71752-2.20436-21.02911-1.32149c-5.40741,0.89874-8.78174,2.30811-11.06897,4.78046 c-3.63843,3.93286-3.25562,8.71004-2.10407,10.51027c0.69006-3.17505,2.98029-6.34535,6.78034-8.36879 c5.26465-2.80322,11.62946-2.99837,18.27169-2.1907c8.23546,1.0014,16.90591,3.55125,24.53514,4.66418 c0.36901,0.05383,0.72837,0.07509,1.03294,0.13506c2.88041,0.34542,5.62863,0.36557,8.13612,0.00235 c4.64873-0.67339,8.47003-2.66446,10.77226-6.34351C133.2498,83.38806,132.95526,81.71883,132.0849,80.99873z" transform="translate(401.004413 -125.19887)" stroke-width="0" stroke-linejoin="miter" stroke-miterlimit="2" fill="#39cfa5" stroke="#39cfa5"></path> <radialGradient id="b421e523-d750-4316-9e37-83c38906ff22" cx="76.18806" cy="99.46595" r="25.22661" gradientUnits="userSpaceOnUse" transform="translate(401.004413 -125.19887)"> <stop offset="0.66685" style="stop-color:#000000;stop-opacity:0"></stop> <stop offset="0.87925" style="stop-color:#000000"></stop> </radialGradient> <path class="highlight" fill="url(#b421e523-d750-4316-9e37-83c38906ff22)" d="M64.96418,87.40204c2.28723-2.47235,5.66156-3.88171,11.06897-4.78046 c5.31149-0.88287,15.16846,0.05988,21.02884,1.32144c-8.46802-1.8707-19.52725-4.04089-27.68201-2.58615 c-7.06839,1.26093-10.84583,5.54471-10.62436,10.57889c0.12347,2.80707,2.45169,5.71277,4.10446,5.97662 C61.70862,96.11197,61.32581,91.33484,64.96418,87.40204z" transform="translate(401.004413 -125.19887)" stroke-width="0" stroke-linejoin="miter" stroke-miterlimit="2" opacity="0.62"></path> <linearGradient id="a6ee8d1c-b3bf-4a98-994f-c8dbb91ab460" gradientUnits="userSpaceOnUse" x1="121.13283" y1="80.73424" x2="105.3317" y2="129.34386"> <stop offset="0.18173" style="stop-color:#000000"></stop> <stop offset="0.25119" style="stop-color:#000000;stop-opacity:0.68377"></stop> <stop offset="0.40136" style="stop-color:#000000;stop-opacity:0"></stop> <stop offset="0.73369" style="stop-color:#000000;stop-opacity:0"></stop> <stop offset="0.97357" style="stop-color:#000000"></stop> </linearGradient> <path class="highlight" fill="url(#a6ee8d1c-b3bf-4a98-994f-c8dbb91ab460)" d="M113.48023,92.15207c-2.13544,4.62766-3.60672,9.38593-4.89072,13.15366 c-2.3891,7.01059-4.32489,13.16232-4.32489,15.29724c0,2.98779,2.06915,4.59988,5.18903,4.59988 c0.87402,0,1.63571-0.14792,1.94064-0.36142c-0.52957-2.00705,3.29431-13.39105,6.33398-21.96036 c1.49902-4.22601,2.78833-7.77899,3.30722-9.16248c0.14795-0.39438,0.28998-0.69403,0.29337-0.70276 c0.07397-0.24069,0.19122-0.5589,0.28748-0.86142C119.10886,92.51764,116.36063,92.4975,113.48023,92.15207z" transform="translate(401.004413 -125.19887)" stroke-width="0" stroke-linejoin="miter" stroke-miterlimit="2" opacity="0.62"></path> <linearGradient id="cfbfd35e-059f-45c3-9fd6-697f4e68c54a" gradientUnits="userSpaceOnUse" x1="131.82961" y1="66.36533" x2="119.67382" y2="98.59227"> <stop offset="0.28608" style="stop-color:#000000"></stop> <stop offset="0.34988" style="stop-color:#000000;stop-opacity:0.71539"></stop> <stop offset="0.48785" style="stop-color:#000000;stop-opacity:0.1"></stop> <stop offset="0.57526" style="stop-color:#000000;stop-opacity:0.1"></stop> <stop offset="0.77772" style="stop-color:#000000"></stop> </linearGradient> <path class="highlight" fill="url(#cfbfd35e-059f-45c3-9fd6-697f4e68c54a)" d="M133.4978,81.56711c0-2.10034-1.91336-4.17624-4.59012-4.17624 c-3.73443,0-6.98925,2.26489-10.26684,6.27106c-1.03912,1.26996-2.00925,2.6138-2.8569,4.02579 c1.59952,0.11816,3.19162,0.14032,4.58154,0.02597c1.4808-0.1218,2.70847-0.36481,3.77747-0.74817 c1.0813-1.97311,3.26233-5.52283,5.32262-6.40671c0.70166-0.26495,1.83246-0.21115,2.61932,0.43991 c0.87036,0.72009,1.16489,2.38934,0.30368,4.81219C133.22791,84.34265,133.4978,82.79837,133.4978,81.56711z" transform="translate(401.004413 -125.19887)" stroke-width="0" stroke-linejoin="miter" stroke-miterlimit="2" opacity="0.62"></path> <linearGradient id="25c72896-f4ca-41f6-b7cb-3d880ec3e656" gradientUnits="userSpaceOnUse" x1="112.42503" y1="104.92574" x2="133.07106" y2="134.37962"> <stop offset="0.18878" style="stop-color:#000000"></stop> <stop offset="0.26138" style="stop-color:#000000;stop-opacity:0.68377"></stop> <stop offset="0.41834" style="stop-color:#000000;stop-opacity:0"></stop> <stop offset="0.48926" style="stop-color:#000000;stop-opacity:0"></stop> <stop offset="0.75133" style="stop-color:#000000"></stop> </linearGradient> <path class="highlight" fill="url(#25c72896-f4ca-41f6-b7cb-3d880ec3e656)" d="M126.00951,120.66623c-0.64307-0.78253-1.125-1.65564-1.37354-2.17645 c-1.01135-2.12079-1.75684-4.25458-3.66748-5.59991c-0.91228-0.6424-2.32315-0.94486-3.80913-0.86775 c-0.92728,0.04813-1.885,0.24422-2.7654,0.59724c-0.38318,1.17535-0.74659,2.31775-1.08265,3.41327 c0.24252,0.28236,0.46503,0.557,0.67354,0.81818c0.43823,0.54889,0.91663,1.1438,1.37549,1.75537 c1.21899,1.62482,2.46655,3.42511,4.77356,4.96576c1.57776,1.05359,3.35901,1.63,5.45056,1.63 c2.50451,0,4.89867-1.13428,6.30322-2.35303C129.66185,123.63724,127.60693,122.84665,126.00951,120.66623z" transform="translate(401.004413 -125.19887)" stroke-width="0" stroke-linejoin="miter" stroke-miterlimit="2" opacity="0.62"></path> <radialGradient id="ef6cd81d-5a6d-4ac4-a0da-23906d24f47f" cx="115.55384" cy="122.05342" r="41.321" gradientUnits="userSpaceOnUse" transform="translate(401.004413 -125.19887)"> <stop offset="0.56157" style="stop-color:#000000;stop-opacity:0"></stop> <stop offset="0.84463" style="stop-color:#000000"></stop> </radialGradient> <path class="highlight" fill="url(#ef6cd81d-5a6d-4ac4-a0da-23906d24f47f)" d="M125.20055,104.06607c-2.61646,3.53882-6.20393,6.46505-10.43574,7.42452 c-0.12659,0.38275-0.24829,0.7518-0.37085,1.12875c0.87862-0.35178,1.83158-0.54828,2.75745-0.59682 c1.48795-0.07801,2.90425,0.22457,3.81709,0.86734c2.89819-0.74182,5.57373-1.92249,7.98974-3.72748 c2.84302-2.12415,5.33154-5.55585,5.33154-9.0899c0-3.21515-2.81616-5.11011-5.53833-5.11011 c-1.97704,0-3.51488,0.15375-6.08105,2.12256c1.58667-1.03577,3.29333-1.17822,3.88916-0.48297 c0.59106,0.68982,0.74207,1.67065,0.60352,2.74939C126.9475,101.02817,126.0548,102.91074,125.20055,104.06607z" transform="translate(401.004413 -125.19887)" stroke-width="0" stroke-linejoin="miter" stroke-miterlimit="2" opacity="0.62"></path> <linearGradient id="98957826-e118-4f74-a781-53c02700fbc6" gradientUnits="userSpaceOnUse" x1="101.24503" y1="119.4985" x2="128.97789" y2="101.00993"> <stop offset="0.4294" style="stop-color:#000000"></stop> <stop offset="0.55097" style="stop-color:#000000;stop-opacity:0.68889"></stop> <stop offset="0.75615" style="stop-color:#000000;stop-opacity:0.16379"></stop> <stop offset="0.82015" style="stop-color:#000000;stop-opacity:0"></stop> </linearGradient> <path class="highlight" fill="url(#98957826-e118-4f74-a781-53c02700fbc6)" d="M125.20055,104.06607c-2.61646,3.53882-6.20393,6.46505-10.43574,7.42452 c-0.12659,0.38275-0.24829,0.7518-0.37085,1.12875c0.87893-0.35191,1.83128-0.54836,2.75745-0.59682 c1.48759-0.07783,2.90445,0.22472,3.81709,0.86734c2.89819-0.74182,5.57373-1.92249,7.98974-3.72748 c2.84302-2.12415,5.33154-5.55585,5.33154-9.0899c0-3.21515-2.81616-5.11011-5.53833-5.11011 c-1.97704,0-3.51488,0.15375-6.08105,2.12256c1.58667-1.03577,3.29333-1.17822,3.88916-0.48297 c0.59106,0.68982,0.74207,1.67065,0.60352,2.74939C126.9475,101.02817,126.0548,102.91074,125.20055,104.06607z" transform="translate(401.004413 -125.19887)" stroke-width="0" stroke-linejoin="miter" stroke-miterlimit="2" opacity="0.62"></path> <linearGradient id="fefdeddb-f9a3-4303-9a24-2689a3afe88e" gradientUnits="userSpaceOnUse" x1="127.21232" y1="124.00789" x2="142.04539" y2="107.7705"> <stop offset="0.04778" style="stop-color:#000000"></stop> <stop offset="0.16906" style="stop-color:#000000;stop-opacity:0.68377"></stop> <stop offset="0.4313" style="stop-color:#000000;stop-opacity:0"></stop> </linearGradient> <path class="highlight" fill="url(#fefdeddb-f9a3-4303-9a24-2689a3afe88e)" d="M138.17847,107.34543c-2.72446,4.87842-8.18365,12.8667-12.16894,13.3208 c1.59735,2.18045,3.65231,2.97101,5.87823,2.18268c2.69858-2.03915,6.90665-6.37631,9.31512-10.96735 C141.63098,110.41638,139.23856,107.71371,138.17847,107.34543z" transform="translate(401.004413 -125.19887)" stroke-width="0" stroke-linejoin="miter" stroke-miterlimit="2" opacity="0.62"></path> <linearGradient id="42e90e7e-8a5c-4279-b506-a0c185522037" gradientUnits="userSpaceOnUse" x1="57.55568" y1="78.56274" x2="144.68422" y2="102.09003"> <stop offset="0.03097" style="stop-color:#000000"></stop> <stop offset="0.11744" style="stop-color:#000000;stop-opacity:0.68377"></stop> <stop offset="0.30441" style="stop-color:#000000;stop-opacity:0"></stop> <stop offset="0.70686" style="stop-color:#000000;stop-opacity:0"></stop> <stop offset="0.8531" style="stop-color:#000000"></stop> </linearGradient> <path class="highlight" fill="url(#42e90e7e-8a5c-4279-b506-a0c185522037)" d="M132.0849,80.99873c-0.78687-0.65106-1.91768-0.70488-2.61934-0.43993 c0.27928,1.44102-0.92506,4.82965-5.32261,6.40671c-1.069,0.38336-2.29665,0.62638-3.77747,0.74818 c-1.38993,0.11433-2.982,0.09218-4.58155-0.02599c-7.66573-0.56628-16.77191-3.32891-18.72168-3.74463 c-5.86035-1.26166-15.71752-2.20436-21.02911-1.32149c-5.40741,0.89874-8.78174,2.30811-11.06897,4.78046 c-3.63843,3.93286-3.25562,8.71004-2.10407,10.51027c0.69006-3.17505,2.98029-6.34535,6.78034-8.36879 c5.26465-2.80322,11.62946-2.99837,18.27169-2.1907c8.23546,1.0014,16.90591,3.55125,24.53514,4.66418 c0.36901,0.05383,0.72837,0.07509,1.03294,0.13506c2.88041,0.34542,5.62863,0.36557,8.13612,0.00235 c4.64873-0.67339,8.47003-2.66446,10.77226-6.34351C133.2498,83.38806,132.95526,81.71883,132.0849,80.99873z" transform="translate(401.004413 -125.19887)" stroke-width="0" stroke-linejoin="miter" stroke-miterlimit="2" opacity="0.62"></path> <radialGradient id="14ad9f31-2813-4991-b93c-95333e342245" cx="110.64223" cy="97.45695" r="36.19138" gradientUnits="userSpaceOnUse" transform="translate(401.004413 -125.19887)"> <stop offset="0.48961" style="stop-color:#000000;stop-opacity:0"></stop> <stop offset="0.95639" style="stop-color:#000000"></stop> </radialGradient> <path class="highlight" fill="url(#14ad9f31-2813-4991-b93c-95333e342245)" d="M132.08495,80.99875c-0.78687-0.65106-1.91772-0.7049-2.61938-0.43994 c0.2793,1.44104-0.92505,4.82965-5.32262,6.40668c-1.06897,0.38336-2.29663,0.6264-3.77747,0.74823 c-1.38989,0.11432-2.98193,0.09216-4.58154-0.026c-3.40479-0.25153-7.09106-0.93646-10.31104-1.65649v4.70044 c2.3877,0.50031,4.72925,0.95782,6.97437,1.28534c0.36902,0.05383,0.72839,0.07507,1.03296,0.13507 c2.88037,0.3454,5.62866,0.36554,8.13611,0.00232c4.6488-0.67334,8.47009-2.66443,10.77233-6.34351 C133.24974,83.38803,132.95531,81.71884,132.08495,80.99875z" transform="translate(401.004413 -125.19887)" stroke-width="0" stroke-linejoin="miter" stroke-miterlimit="2" opacity="0.62"></path> <linearGradient id="941ee4f9-544f-49c5-b54d-680f078762b1" gradientUnits="userSpaceOnUse" x1="112.30839" y1="112.00382" x2="127.13411" y2="95.65491"> <stop offset="0.10039" style="stop-color:#000000"></stop> <stop offset="0.25871" style="stop-color:#000000;stop-opacity:0.6231"></stop> <stop offset="0.52043" style="stop-color:#000000;stop-opacity:0"></stop> <stop offset="0.61676" style="stop-color:#000000;stop-opacity:0"></stop> <stop offset="0.96326" style="stop-color:#000000"></stop> </linearGradient> <path class="highlight" fill="url(#941ee4f9-544f-49c5-b54d-680f078762b1)" d="M116.944,110.80632c0.03161-0.05071,1.14971-2.02959,3.22239-5.00407 c0.85941-1.23334,1.29477-1.832,2.38837-2.92505c1.02136-1.02087,2.58911-2.5473,3.90338-3.26608 c0.0816-0.04462,0.20929-0.10596,0.34845-0.15936c0.13211-0.05072,0.28082-0.08386,0.35645-0.1004 c0.13861-1.07877-0.01245-2.05954-0.60352-2.74936c-0.59576-0.69528-2.30237-0.55286-3.88907,0.48294 c-0.4783,0.38104-1.50711,1.1727-2.49393,2.3396c-0.77191,0.91275-1.45502,1.98703-2.11566,2.95447 c-0.09848,0.1442-0.23676,0.35687-0.33258,0.50208c-0.96335,2.71585-2.00613,5.71636-2.96347,8.60952 C115.51429,111.3207,116.23685,111.09206,116.944,110.80632z" transform="translate(401.004413 -125.19887)" stroke-width="0" stroke-linejoin="miter" stroke-miterlimit="2" opacity="0.62"></path> <linearGradient id="0425f313-01ad-4bde-904a-33b9eb2d63c7" gradientUnits="userSpaceOnUse" x1="115.19208" y1="110.13805" x2="109.72211" y2="131.55437"> <stop offset="0.25848" style="stop-color:#000000"></stop> <stop offset="0.49297" style="stop-color:#000000;stop-opacity:0.68377"></stop> <stop offset="1" style="stop-color:#000000;stop-opacity:0"></stop> </linearGradient> <path class="highlight" fill="url(#0425f313-01ad-4bde-904a-33b9eb2d63c7)" d="M111.39429,124.84137c0.33084-1.33859,0.68658-2.6629,1.10275-3.95935 c0.44025-1.37149,0.94614-2.71243,1.48785-4.03122c-0.22723-0.28464-0.45023-0.55805-0.67359-0.81818 C111.9928,120.33129,111.1236,123.81519,111.39429,124.84137z" transform="translate(401.004413 -125.19887)" stroke-width="0" stroke-linejoin="miter" stroke-miterlimit="2" opacity="0.62"></path> </g>
        <g id="path181865" aria-label="k" transform="translate(0 386.5888) translate(592.8249008 -102.9856) scale(4.2) translate(-535.22675 47.808)"> <path class="c1" d="M88.63386,125.18209c0.68086-2.75471,1.54143-5.42241,2.59521-7.98779 c0.77661-1.89062,1.72644-3.9276,2.96136-6.05794c0.96407-1.6631,2.23556-3.58611,3.21633-4.99362 c0.85938-1.23331,1.29476-1.83198,2.38836-2.92504c1.02136-1.02087,2.5891-2.54731,3.90339-3.26608 c0.0816-0.04463,0.20927-0.10596,0.34843-0.15938c0.1321-0.0507,0.28083-0.08385,0.35645-0.10039 c1.31783-0.68907,0.7654-2.9756-0.15817-3.40583c-0.50667-0.23602-1.07862-0.258-1.73888-0.09479 c-0.74886,0.18512-1.64247,0.54523-2.62092,1.22797c-0.47831,0.38107-1.46867,1.20272-2.45548,2.36962 c-0.77189,0.91276-1.51042,1.95999-2.17108,2.92744c-2.94437,4.31168-4.69957,9.09515-5.79473,13.36807 C88.50827,119.81377,87.88477,124.21015,88.63386,125.18209z" transform="translate(453.72181 -125.54603)" stroke-width="0" stroke-linejoin="miter" stroke-miterlimit="2" fill="#39cfa5" stroke="#39cfa5"></path> <path class="c2" d="M102.0967,83.36134c0.16009-3.19386-2.08826-5.62331-5.49931-5.62331 c-0.87402,0-1.60932,0.07256-1.91425,0.28608c0.70521,2.67306-13.1782,37.20212-13.1782,42.91938 c0,2.98782,2.06993,4.60754,5.18974,4.60754c0.87402,0,1.63427-0.15546,1.93916-0.36894 c-0.65131-2.46877,4.46434-16.63023,5.32777-19.01606c0.4311-1.1912,0.87043-2.30939,1.30444-3.4603 c2.05713-5.45522,4.07034-10.36445,4.94279-12.69291C101.29238,87.12102,102.02377,84.81644,102.0967,83.36134z" transform="translate(453.72181 -125.54603)" stroke-width="0" stroke-linejoin="miter" stroke-miterlimit="2" fill="#39cfa5" stroke="#39cfa5"></path> <path class="c2" d="M90.01646,114.24794c3.10028-0.03143,5.81396-0.40881,8.20081-1.01976 c9.26057-2.37039,13.32281-8.40604,13.32281-12.80516c0-3.21514-2.81326-5.11279-5.53543-5.11279 c-1.97707,0-3.55302,0.14017-6.11922,2.10897c1.5867-1.03577,3.31869-1.17198,3.91445-0.47671 c0.59108,0.6898,0.74212,1.6706,0.60352,2.74936c-0.21544,1.67682-1.10821,3.55936-1.96246,4.71474 c-2.97504,4.0238-7.20288,7.25497-12.20937,7.70429C89.80206,112.34831,89.37295,114.09367,90.01646,114.24794z" transform="translate(453.72181 -125.54603)" stroke-width="0" stroke-linejoin="miter" stroke-miterlimit="2" fill="#39cfa5" stroke="#39cfa5"></path> <path class="c1" d="M115.41999,107.69497c-2.72444,4.87843-8.18363,12.85725-12.16895,13.31134 c-0.33535,0.27656-0.36633,2.23336,1.34011,2.99619c1.40495,0.62804,3.23267-0.05534,4.55384-0.80827 c2.69859-2.03915,6.88567-6.35999,9.29414-10.95101C118.89069,110.74322,116.4907,108.03384,115.41999,107.69497z" transform="translate(453.72181 -125.54603)" stroke-width="0" stroke-linejoin="miter" stroke-miterlimit="2" fill="#39cfa5" stroke="#39cfa5"></path> <path class="c2" d="M101.8764,118.83026c-1.01144-2.12075-1.75806-4.25427-3.66869-5.59963 c-2.15066-1.51438-7.08032-1.13904-9.19632,1.64067c0.77586,0.5819,1.4798,1.39862,2.21768,2.323 c0.94228,1.18045,1.92795,2.5405,3.06052,3.85462c2.36388,2.74284,4.97318,4.49352,8.53526,4.49352 c2.50451,0,4.91558-1.12949,6.32014-2.34821c-2.22591,0.78832-4.29658-0.00748-5.89395-2.18792 C102.60799,120.22375,102.12482,119.35113,101.8764,118.83026z" transform="translate(453.72181 -125.54603)" stroke-width="0" stroke-linejoin="miter" stroke-miterlimit="2" fill="#39cfa5" stroke="#39cfa5"></path> <linearGradient id="58fa6a01-ed86-49a2-911b-66daa3ff67eb" gradientUnits="userSpaceOnUse" x1="103.77504" y1="125.7042" x2="119.21788" y2="106.90864"> <stop offset="0.09053" style="stop-color:#000000"></stop> <stop offset="0.23182" style="stop-color:#000000;stop-opacity:0.68377"></stop> <stop offset="0.53731" style="stop-color:#000000;stop-opacity:0"></stop> </linearGradient> <path class="highlight" fill="url(#58fa6a01-ed86-49a2-911b-66daa3ff67eb)" d="M115.42001,107.69496c-2.72449,4.87842-8.18365,12.85724-12.16895,13.31134 c1.59735,2.18042,3.66803,2.97626,5.89392,2.18793c2.69861-2.03918,6.88568-6.35999,9.29413-10.95105 C118.89072,110.74318,116.49069,108.03383,115.42001,107.69496z" transform="translate(453.72181 -125.54603)" stroke-width="0" stroke-linejoin="miter" stroke-miterlimit="2" opacity="0.62"></path> <linearGradient id="4a401194-de2d-4945-b3f3-1ed4409c22a0" gradientUnits="userSpaceOnUse" x1="89.53819" y1="112.37383" x2="104.38434" y2="96.0024"> <stop offset="0.10039" style="stop-color:#000000"></stop> <stop offset="0.25871" style="stop-color:#000000;stop-opacity:0.6231"></stop> <stop offset="0.52043" style="stop-color:#000000;stop-opacity:0"></stop> <stop offset="0.61676" style="stop-color:#000000;stop-opacity:0"></stop> <stop offset="0.96326" style="stop-color:#000000"></stop> </linearGradient> <path class="highlight" fill="url(#4a401194-de2d-4945-b3f3-1ed4409c22a0)" d="M103.7999,96.94246c-0.59576-0.69525-2.32776-0.55902-3.91449,0.47675 c-0.47827,0.38104-1.46863,1.2027-2.45544,2.36963c-0.76935,0.90967-1.50519,1.95282-2.16412,2.91754 c-0.43396,1.1507-0.87317,2.26868-1.3042,3.45966c-0.68091,1.8813-1.33707,3.74624-1.98766,5.6721 c0.38844-0.08716,0.77567-0.19106,1.19221-0.32363c0.55862-0.17779,0.91518-0.33031,1.01817-0.36767 c0.96405-1.66315,2.24163-3.59658,3.2224-5.00411c0.85938-1.23334,1.29474-1.83197,2.38837-2.92505 c1.02136-1.02087,2.58911-2.5473,3.90338-3.26605c0.0816-0.04462,0.20929-0.10596,0.34845-0.15936 c0.13208-0.05072,0.28082-0.08386,0.35645-0.1004C104.54202,98.61311,104.39096,97.63228,103.7999,96.94246z" transform="translate(453.72181 -125.54603)" stroke-width="0" stroke-linejoin="miter" stroke-miterlimit="2" opacity="0.62"></path> <linearGradient id="e91464a5-2cd2-4163-8246-404bd030e034" gradientUnits="userSpaceOnUse" x1="92.42403" y1="110.42741" x2="86.93683" y2="131.91122"> <stop offset="0.25848" style="stop-color:#000000"></stop> <stop offset="0.49297" style="stop-color:#000000;stop-opacity:0.68377"></stop> <stop offset="1" style="stop-color:#000000;stop-opacity:0"></stop> </linearGradient> <path class="highlight" fill="url(#e91464a5-2cd2-4163-8246-404bd030e034)" d="M88.63388,125.18208c0.68085-2.7547,1.54138-5.42242,2.59521-7.98779 c-0.24072-0.30157-0.47766-0.5863-0.71503-0.85968C89.30484,120.24361,88.32632,124.01637,88.63388,125.18208z" transform="translate(453.72181 -125.54603)" stroke-width="0" stroke-linejoin="miter" stroke-miterlimit="2" opacity="0.62"></path> <linearGradient id="9bd71b94-52a1-4c83-add3-799a1e9f1b1c" gradientUnits="userSpaceOnUse" x1="82.77571" y1="133.00891" x2="102.2451" y2="65.78442"> <stop offset="0.07319" style="stop-color:#000000"></stop> <stop offset="0.13513" style="stop-color:#000000;stop-opacity:0.68377"></stop> <stop offset="0.26906" style="stop-color:#000000;stop-opacity:0"></stop> <stop offset="0.65177" style="stop-color:#000000;stop-opacity:0"></stop> <stop offset="0.95806" style="stop-color:#000000"></stop> </linearGradient> <path class="highlight" fill="url(#9bd71b94-52a1-4c83-add3-799a1e9f1b1c)" d="M102.0967,83.36134c0.16009-3.19386-2.08826-5.62331-5.49931-5.62331 c-0.87402,0-1.60932,0.07256-1.91425,0.28608c0.70521,2.67306-13.1782,37.20212-13.1782,42.91938 c0,2.98782,2.06993,4.60754,5.18974,4.60754c0.87402,0,1.63427-0.15546,1.93916-0.36894 c-0.65131-2.46877,4.46434-16.63023,5.32777-19.01606c0.4311-1.1912,0.87043-2.30939,1.30444-3.4603 c2.05713-5.45522,4.07034-10.36445,4.94279-12.69291C101.29238,87.12102,102.02377,84.81644,102.0967,83.36134z" transform="translate(453.72181 -125.54603)" stroke-width="0" stroke-linejoin="miter" stroke-miterlimit="2" opacity="0.62"></path> <linearGradient id="66e660c9-958a-40d2-ac13-94d8ba367d6a" gradientUnits="userSpaceOnUse" x1="89.65526" y1="105.24971" x2="110.327" y2="134.74028"> <stop offset="0.18878" style="stop-color:#000000"></stop> <stop offset="0.26138" style="stop-color:#000000;stop-opacity:0.68377"></stop> <stop offset="0.41834" style="stop-color:#000000;stop-opacity:0"></stop> <stop offset="0.48926" style="stop-color:#000000;stop-opacity:0"></stop> <stop offset="0.75133" style="stop-color:#000000"></stop> </linearGradient> <path class="highlight" fill="url(#66e660c9-958a-40d2-ac13-94d8ba367d6a)" d="M103.25107,121.0063c-0.64307-0.78259-1.12622-1.65521-1.37463-2.17603 c-1.01147-2.12079-1.75806-4.25427-3.6687-5.59967c-0.38453-0.27077-0.86173-0.48224-1.39216-0.6292 c-0.69894-0.19366-1.49298-0.27617-2.31577-0.24325c-0.97398,0.03896-1.98222,0.24104-2.90697,0.61843 c-0.36188,1.09088-0.72995,2.23064-1.07877,3.35809c0.23712,0.27417,0.47437,0.55811,0.71503,0.85962 c0.94226,1.18042,1.92792,2.54047,3.06049,3.85461c2.36389,2.74286,4.97321,4.49353,8.53528,4.49353 c2.50452,0,4.91559-1.12952,6.32013-2.34821C106.9191,123.98256,104.84842,123.18672,103.25107,121.0063z" transform="translate(453.72181 -125.54603)" stroke-width="0" stroke-linejoin="miter" stroke-miterlimit="2" opacity="0.62"></path> <linearGradient id="5b307ffd-2f65-414c-973e-cab33595a4b8" gradientUnits="userSpaceOnUse" x1="78.427" y1="119.8823" x2="106.21397" y2="101.35767"> <stop offset="0.4294" style="stop-color:#000000"></stop> <stop offset="0.55097" style="stop-color:#000000;stop-opacity:0.68889"></stop> <stop offset="0.75615" style="stop-color:#000000;stop-opacity:0.16379"></stop> <stop offset="0.82015" style="stop-color:#000000;stop-opacity:0"></stop> </linearGradient> <path class="highlight" fill="url(#5b307ffd-2f65-414c-973e-cab33595a4b8)" d="M102.44095,104.40657c-2.62286,3.54749-6.22149,6.47935-10.46697,7.43156 c-0.12402,0.36719-0.25455,0.75687-0.38114,1.13846c0.34158-0.13919,0.69053-0.25423,1.048-0.34582 c0.57811-0.14812,1.22249-0.24832,1.87782-0.27335c0.78255-0.0299,1.57639,0.0442,2.29692,0.24399 c0.51317,0.14229,0.99136,0.34713,1.39179,0.62902c0.00317-0.00079,0.00671-0.00146,0.00989-0.00226 c9.26056-2.37042,13.32281-8.40607,13.32281-12.80518c0-3.21515-2.81323-5.11279-5.5354-5.11279 c-1.97711,0-3.55304,0.1402-6.11926,2.10901c1.58673-1.03577,3.31873-1.172,3.91449-0.47675 c0.59106,0.68982,0.74213,1.67065,0.60352,2.74939C104.18796,101.36867,103.2952,103.25117,102.44095,104.40657z" transform="translate(453.72181 -125.54603)" stroke-width="0" stroke-linejoin="miter" stroke-miterlimit="2" opacity="0.62"></path> <radialGradient id="aa7b5c75-99de-45d1-9614-bdef7414bc57" cx="92.75516" cy="122.39027" r="41.40493" gradientUnits="userSpaceOnUse" transform="translate(453.72181 -125.54603)"> <stop offset="0.56157" style="stop-color:#000000;stop-opacity:0"></stop> <stop offset="0.84463" style="stop-color:#000000"></stop> </radialGradient> <path class="highlight" fill="url(#aa7b5c75-99de-45d1-9614-bdef7414bc57)" d="M102.44095,104.40657c-2.62286,3.54749-6.22149,6.47935-10.46697,7.43156 c-0.12402,0.36719-0.25513,0.75979-0.38172,1.14138c0.34344-0.13995,0.69798-0.25888,1.05884-0.35136 c0.6035-0.15469,1.22546-0.24254,1.83155-0.26928c0.74814-0.03301,1.56502,0.02976,2.32697,0.24089 c0.50575,0.14014,0.99393,0.34639,1.39775,0.63067c0.10116-0.02599,0.10461-0.02614,0.26979-0.07011 c2.75112-0.73227,5.03459-1.79046,6.88116-3.03106c4.24576-2.85249,6.18176-6.66935,6.18176-9.70627 c0-3.21515-2.81323-5.11279-5.5354-5.11279c-1.97711,0-3.55304,0.1402-6.11926,2.10901 c1.58673-1.03577,3.31873-1.172,3.91449-0.47675c0.59106,0.68982,0.74213,1.67065,0.60352,2.74939 C104.18796,101.36867,103.2952,103.25117,102.44095,104.40657z" transform="translate(453.72181 -125.54603)" stroke-width="0" stroke-linejoin="miter" stroke-miterlimit="2" opacity="0.62"></path> </g>
        </g>
      <image xlink:href="" id="icon" x="0" y="0" style="display: none;"></image>
    </g>
  </g>
</svg>